<svg height="512pt" viewBox="-93 0 512 512" width="512pt" xmlns="http://www.w3.org/2000/svg"><path d="m139.726562 60.003906v99.179688h41.988282v-99.179688c0-9.949218 8.0625-18.015625 18.011718-18.015625 9.949219 0 18.015626 8.066407 18.015626 18.015625 0 9.285156 7.527343 16.8125 16.8125 16.8125h8.359374c9.285157 0 16.816407-7.527344 16.816407-16.8125 0-33.140625-26.863281-60.003906-60.003907-60.003906-33.136718 0-60 26.863281-60 60.003906zm0 0" fill="#9395a3"/><path d="m194.761719 292.3125h-63.191407l-23.121093 206.925781c-.757813 6.804688 4.566406 12.757813 11.414062 12.757813h86.605469c6.847656 0 12.175781-5.953125 11.414062-12.757813zm0 0" fill="#c5dbff"/><path d="m206.464844 512h-86.597656c-6.847657 0-12.171876-5.953125-11.414063-12.757812l1.394531-12.472657h56.421875c11.460938 0 20.371094-9.964843 19.101563-21.355469l-19.34375-173.097656h28.730468l23.121094 206.921875c.761719 6.808594-4.566406 12.761719-11.414062 12.761719zm0 0" fill="#9ecaff"/><path d="m298.671875 185.164062c0 74.835938-60.667969 135.503907-135.503906 135.503907-74.835938 0-135.503907-60.667969-135.503907-135.503907zm0 0" fill="#e1e9ff"/><path d="m298.664062 185.167969c0 74.832031-60.65625 135.5-135.496093 135.5-19.4375 0-37.921875-4.089844-54.625-11.457031 10.007812 2.351562 20.445312 3.605468 31.179687 3.605468 72.203125 0 131.210938-56.476562 135.269532-127.648437zm0 0" fill="#cbd7f2"/><path d="m309.566406 193.554688h-292.800781c-9.257813 0-16.765625-7.507813-16.765625-16.769532v-22.953125c0-9.261719 7.507812-16.765625 16.765625-16.765625h292.804687c9.257813 0 16.765626 7.503906 16.765626 16.765625v22.953125c0 9.261719-7.507813 16.769532-16.769532 16.769532zm0 0" fill="#3e73b7"/></svg>